<svg width="27" height="27" xmlns="http://www.w3.org/2000/svg" xmlns:xlink="http://www.w3.org/1999/xlink" overflow="hidden"><defs><clipPath id="clip0"><rect x="814" y="180" width="27" height="27"/></clipPath></defs><g clip-path="url(#clip0)" transform="translate(-814 -180)"><path d="M830.678 190.491C829.497 190.491 828.569 189.534 828.569 188.381 828.569 187.228 829.525 186.272 830.678 186.272 831.859 186.272 832.787 187.228 832.787 188.381 832.787 189.534 831.831 190.491 830.678 190.491ZM835.431 187.059C835.319 186.666 835.178 186.3 834.981 185.962L835.431 184.641 834.419 183.628 833.097 184.078C832.759 183.881 832.394 183.741 832 183.628L831.381 182.391 829.975 182.391 829.356 183.628C828.963 183.741 828.597 183.881 828.259 184.078L826.938 183.628 825.925 184.641 826.375 185.962C826.178 186.3 826.037 186.666 825.925 187.059L824.688 187.678 824.688 189.084 825.925 189.703C826.037 190.097 826.178 190.462 826.375 190.8L825.925 192.122 826.909 193.106 828.231 192.656C828.569 192.853 828.934 192.994 829.328 193.106L829.947 194.344 831.353 194.344 831.972 193.106C832.366 192.994 832.731 192.853 833.069 192.656L834.391 193.106 835.403 192.122 834.953 190.8C835.15 190.462 835.319 190.069 835.431 189.703L836.669 189.084 836.669 187.678 835.431 187.059Z" fill="#808080"/><path d="M824.322 200.728C823.141 200.728 822.213 199.772 822.213 198.619 822.213 197.438 823.169 196.509 824.322 196.509 825.503 196.509 826.431 197.466 826.431 198.619 826.431 199.772 825.503 200.728 824.322 200.728L824.322 200.728ZM828.625 196.2 829.075 194.878 828.062 193.866 826.741 194.316C826.403 194.119 826.009 193.978 825.644 193.866L825.025 192.628 823.619 192.628 823 193.866C822.606 193.978 822.241 194.119 821.903 194.316L820.581 193.866 819.597 194.85 820.019 196.172C819.822 196.509 819.681 196.903 819.569 197.269L818.331 197.887 818.331 199.294 819.569 199.913C819.681 200.306 819.822 200.672 820.019 201.009L819.597 202.331 820.581 203.316 821.903 202.894C822.241 203.091 822.606 203.231 823 203.344L823.619 204.581 825.025 204.581 825.644 203.344C826.037 203.231 826.403 203.091 826.741 202.894L828.062 203.344 829.047 202.331 828.625 201.038C828.822 200.7 828.963 200.334 829.075 199.941L830.312 199.322 830.312 197.916 829.075 197.297C828.963 196.903 828.822 196.538 828.625 196.2Z" fill="#808080"/></g></svg>